# xmcd
#
# Track frame offsets: 
#        150
#        9162
#        17823
#        26904
#        35163
#        46708
#        59098
#        72144
#        83966
#        95428
#        108870
#        123077
#
# Disc length: 1827 seconds
#
# Revision: 0
# Processed by: cddbd v1.5.2PL0 Copyright (c) Steve Scherf et al.
# Submitted via: ExactAudioCopy v1.2
#
DISCID=9407210c
DTITLE=Apache Dropout - Bubblegum Graveyard
DYEAR=2012
DGENRE=Punk
TTITLE0=Archie's Army
TTITLE1=Candy Bar
TTITLE2=1-2-3 Red Light
TTITLE3=Carryin' Fleas
TTITLE4=Ghost Stories
TTITLE5=Lady Blood
TTITLE6=Quaaludes '68
TTITLE7=Robbin' The Banks
TTITLE8=The Fried Stranger
TTITLE9=I-80
TTITLE10=Katie Verlaine
TTITLE11=Hey Valentine
EXTD=
EXTT0=
EXTT1=
EXTT2=
EXTT3=
EXTT4=
EXTT5=
EXTT6=
EXTT7=
EXTT8=
EXTT9=
EXTT10=
EXTT11=
PLAYORDER=
